<svg width="49" height="39" viewBox="0 0 49 39" fill="none" xmlns="http://www.w3.org/2000/svg"><path d="M31.348 27.38H18.264V3.866h13.084V27.38z" fill="#879FD6"/><path d="M19.095 15.624a14.93 14.93 0 015.71-11.757A14.889 14.889 0 0015.566.67C7.306.67.612 7.365.612 15.624s6.694 14.954 14.953 14.954c3.488 0 6.697-1.195 9.24-3.197a14.929 14.929 0 01-5.71-11.757z" fill="#7791CD"/><path d="M49 15.624c0 8.259-6.694 14.954-14.952 14.954a14.893 14.893 0 01-9.242-3.197 14.927 14.927 0 005.712-11.757c0-4.77-2.234-9.019-5.712-11.757A14.893 14.893 0 0134.048.67C42.306.67 49 7.365 49 15.624zM35.775 34.024c.174 0 .424.034.615.109l-.266.814a1.4 1.4 0 00-.54-.1c-.565 0-.847.365-.847 1.02v2.227h-.864v-3.97h.855v.482c.225-.349.549-.582 1.047-.582zm-3.192.89H31.17v1.793c0 .399.14.665.573.665.224 0 .507-.075.764-.224l.249.738c-.274.191-.706.308-1.08.308-1.022 0-1.378-.548-1.378-1.47v-1.81h-.806v-.79h.806V32.92h.872v1.204h1.412v.79zm-11.057.846c.093-.573.44-.964 1.056-.964.556 0 .913.35 1.005.964h-2.06zm2.958.35c-.008-1.239-.773-2.086-1.886-2.086-1.163 0-1.977.847-1.977 2.085 0 1.262.847 2.084 2.036 2.084.598 0 1.145-.149 1.628-.556l-.425-.64a1.887 1.887 0 01-1.154.416c-.556 0-1.063-.258-1.187-.972h2.948c.009-.108.017-.216.017-.332zm3.795-.972c-.24-.15-.73-.342-1.236-.342-.474 0-.756.175-.756.466 0 .266.298.34.672.39l.407.058c.864.126 1.387.49 1.387 1.188 0 .756-.665 1.296-1.81 1.296-.649 0-1.247-.166-1.72-.515l.407-.673c.29.224.723.415 1.321.415.59 0 .905-.174.905-.482 0-.223-.224-.349-.697-.414l-.407-.058c-.89-.126-1.371-.524-1.371-1.172 0-.789.648-1.27 1.653-1.27.631 0 1.205.141 1.62.415l-.375.698zm10.654-.293c-.178 0-.343.031-.496.093-.152.063-.284.15-.395.262a1.217 1.217 0 00-.263.404c-.063.157-.095.33-.095.519s.032.36.095.518a1.19 1.19 0 00.658.666c.153.063.318.093.496.093.177 0 .343-.03.495-.093a1.187 1.187 0 00.663-.666c.063-.157.095-.33.095-.518 0-.189-.032-.362-.095-.518a1.189 1.189 0 00-.663-.666 1.305 1.305 0 00-.495-.094zm0-.82c.308 0 .593.053.855.16a2.02 2.02 0 011.13 1.105c.109.256.163.533.163.833 0 .3-.054.577-.162.833a2.025 2.025 0 01-1.13 1.105c-.263.107-.548.16-.856.16-.309 0-.594-.053-.856-.16a2.07 2.07 0 01-.678-.44 2.05 2.05 0 01-.448-.666 2.112 2.112 0 01-.162-.832c0-.3.054-.577.162-.833.109-.255.258-.477.448-.664.19-.187.416-.334.678-.44.262-.108.547-.162.856-.162zM16.48 36.108c0-.698.457-1.27 1.204-1.27.714 0 1.197.548 1.197 1.27 0 .723-.483 1.27-1.197 1.27-.747 0-1.204-.572-1.204-1.27zm3.214 0v-1.985h-.863v.482c-.275-.357-.69-.582-1.254-.582-1.113 0-1.985.872-1.985 2.085 0 1.212.872 2.085 1.985 2.085.565 0 .98-.224 1.254-.582v.482h.863V36.11zm-4.866 1.985v-2.491c0-.939-.598-1.57-1.562-1.579-.506-.008-1.03.15-1.395.707-.274-.44-.707-.707-1.313-.707-.423 0-.839.125-1.163.59v-.49h-.863v3.97h.872v-2.2c0-.69.382-1.056.971-1.056.573 0 .864.374.864 1.047v2.21h.872v-2.201c0-.69.4-1.056.972-1.056.59 0 .873.374.873 1.047v2.21h.872z" fill="#A0B3DE"/></svg>