<svg width="171" height="30" viewBox="0 0 171 30" fill="none" xmlns="http://www.w3.org/2000/svg"><g clip-path="url(#clip0)"><path d="M74.361 19.893v-6.16c0-2.325-1.496-3.89-3.905-3.91a3.873 3.873 0 00-1.984.402 3.831 3.831 0 00-1.502 1.347 3.629 3.629 0 00-1.397-1.321 3.672 3.672 0 00-1.882-.429 3.31 3.31 0 00-1.647.35c-.508.256-.941.64-1.255 1.112v-1.232h-2.16v9.84h2.181v-5.45c0-1.708.953-2.611 2.43-2.611 1.475 0 2.159.924 2.159 2.591v5.47h2.168v-5.45c0-1.708.995-2.611 2.43-2.611 1.433 0 2.18.924 2.18 2.591v5.47h2.184zm32.263-9.832h-3.528V7.079h-2.18v2.982h-2.015v1.955h2.015v4.48c0 2.284.891 3.643 3.445 3.643a5.105 5.105 0 002.698-.76l-.621-1.831a4.017 4.017 0 01-1.911.554c-1.078 0-1.435-.657-1.435-1.643v-4.443h3.528l.004-1.955zm18.418-.247a2.947 2.947 0 00-1.508.365 2.912 2.912 0 00-1.108 1.077V10.06h-2.139v9.832h2.16V14.38c0-1.643.704-2.53 2.118-2.53.462-.006.922.077 1.351.247l.664-2.017a4.656 4.656 0 00-1.538-.267zm-27.844 1.027a7.475 7.475 0 00-4.05-1.027c-2.512 0-4.146 1.195-4.146 3.146 0 1.606 1.203 2.592 3.424 2.9l1.016.143c1.181.165 1.745.473 1.745 1.027 0 .76-.787 1.195-2.263 1.195a5.323 5.323 0 01-3.316-1.026l-.983 1.663a7.206 7.206 0 004.299 1.277c2.864 0 4.526-1.339 4.526-3.207 0-1.73-1.31-2.633-3.465-2.941l-1.016-.144c-.932-.123-1.683-.308-1.683-.965 0-.719.705-1.15 1.89-1.15a6.441 6.441 0 013.093.842l.929-1.733zm57.835-1.027a2.952 2.952 0 00-1.508.365 2.92 2.92 0 00-1.108 1.077V10.06h-2.139v9.832h2.16V14.38c0-1.643.705-2.53 2.118-2.53a3.55 3.55 0 011.352.247l.663-2.017a4.656 4.656 0 00-1.538-.267zm-27.811 5.163c0 2.982 2.098 5.162 5.294 5.162a5.23 5.23 0 003.569-1.174l-1.036-1.73a4.389 4.389 0 01-2.595.884c-1.725 0-2.989-1.257-2.989-3.146 0-1.89 1.268-3.126 2.989-3.146a4.39 4.39 0 012.595.883l1.036-1.73a5.23 5.23 0 00-3.569-1.174c-3.196 0-5.294 2.18-5.294 5.163v.008zm20.221 0v-4.929h-2.16v1.195a3.758 3.758 0 00-1.39-1.098 3.794 3.794 0 00-1.744-.343c-2.781 0-4.974 2.16-4.974 5.162 0 3.003 2.181 5.163 4.974 5.163a3.794 3.794 0 001.744-.343 3.757 3.757 0 001.39-1.099v1.191h2.16v-4.9zm-8.034 0c0-1.73 1.14-3.146 3.01-3.146 1.787 0 2.989 1.36 2.989 3.146 0 1.786-1.202 3.146-2.989 3.146-1.87 0-3.01-1.421-3.01-3.146zm-26.057-5.163c-2.902 0-4.941 2.099-4.941 5.163 0 3.125 2.118 5.162 5.086 5.162a6.069 6.069 0 004.071-1.38l-1.057-1.585a4.759 4.759 0 01-2.902 1.027c-1.393 0-2.657-.637-2.968-2.407h7.37c.021-.267.042-.534.042-.821 0-3.064-1.932-5.163-4.713-5.163l.012.004zm-.041 1.914c1.392 0 2.284.863 2.512 2.386h-5.145c.228-1.42 1.099-2.386 2.637-2.386h-.004zm54.158 3.249V6.11h-2.16v5.142a3.758 3.758 0 00-1.39-1.099 3.794 3.794 0 00-1.744-.343c-2.781 0-4.974 2.16-4.974 5.163 0 3.002 2.181 5.162 4.974 5.162a3.794 3.794 0 001.744-.343 3.757 3.757 0 001.39-1.098v1.19h2.16v-4.907zm2.525 4.008a.635.635 0 01.451.185.621.621 0 01.188.44.621.621 0 01-.188.44.651.651 0 01-1.048-.198.612.612 0 010-.485.625.625 0 01.34-.332.655.655 0 01.265-.05h-.008zm0 1.11a.471.471 0 00.344-.14.486.486 0 00-.344-.83.497.497 0 00-.486.392.493.493 0 00.133.438.5.5 0 00.361.14h-.008zm.037-.781a.266.266 0 01.174.05.162.162 0 01.062.136.145.145 0 01-.012.064.142.142 0 01-.038.054.233.233 0 01-.136.057l.19.218h-.149l-.178-.218h-.058v.218h-.125v-.575l.27-.004zm-.145.107v.156h.145a.143.143 0 00.079 0 .068.068 0 00.022-.025.072.072 0 00.007-.033.073.073 0 00-.007-.032.07.07 0 00-.022-.025.143.143 0 00-.079 0l-.145-.041zm-10.442-4.444c0-1.73 1.14-3.146 3.009-3.146 1.787 0 2.989 1.36 2.989 3.146 0 1.786-1.202 3.146-2.989 3.146-1.869 0-3.009-1.421-3.009-3.146zm-72.916 0v-4.929h-2.16v1.195a3.759 3.759 0 00-1.386-1.088 3.794 3.794 0 00-1.736-.34c-2.781 0-4.974 2.16-4.974 5.162s2.18 5.162 4.974 5.162c.601.025 1.199-.092 1.744-.343a3.757 3.757 0 001.39-1.098v1.19h2.16l-.012-4.911zm-8.034 0c0-1.73 1.14-3.146 3.01-3.146 1.786 0 2.988 1.36 2.988 3.146 0 1.786-1.202 3.146-2.989 3.146-1.869 0-3.009-1.417-3.009-3.146z" fill="#A0B3DE"/><path d="M31.071 3.288H18.014v23.25H31.07V3.288z" fill="#879FD6"/><path d="M18.843 14.92a14.648 14.648 0 011.498-6.462 14.786 14.786 0 014.202-5.16A15.045 15.045 0 008.799 1.624a14.876 14.876 0 00-6.127 5.453 14.685 14.685 0 00-2.274 7.844c0 2.774.788 5.492 2.274 7.844a14.876 14.876 0 006.127 5.454 15.044 15.044 0 0015.744-1.673 14.79 14.79 0 01-4.203-5.162 14.648 14.648 0 01-1.497-6.465z" fill="#7791CD"/><path d="M48.69 14.92c-.001 2.774-.789 5.492-2.275 7.844a14.875 14.875 0 01-6.128 5.454 15.045 15.045 0 01-15.744-1.676 14.811 14.811 0 004.2-5.162 14.672 14.672 0 000-12.925 14.811 14.811 0 00-4.2-5.163 15.045 15.045 0 0115.746-1.675 14.877 14.877 0 016.128 5.456 14.685 14.685 0 012.272 7.846z" fill="#A0B3DE"/><path d="M47.255 24.074v-.476h.195v-.095h-.485v.099h.194v.476l.096-.004zm.957 0v-.575h-.128l-.174.41-.174-.41h-.154v.575h.087v-.431l.162.373h.112l.162-.373v.435l.107-.004z" fill="#F79E1B"/></g><defs><clipPath id="clip0"><path fill="white" d="M0 0h170.44v29.83H0z"/></clipPath></defs></svg>