<svg width="78" height="23" viewBox="0 0 78 23" fill="none" xmlns="http://www.w3.org/2000/svg"><path d="M43.431 2.992l-4.923 10.667h-.5V.67h-7.003v22h5.944a3.994 3.994 0 003.63-2.325l4.923-10.667h.5v13h7.003V.67H47.06a3.999 3.999 0 00-3.63 2.322zM17.172 3.56l-2.916 10.121h-.506l-2.915-10.12A4.001 4.001 0 007.005.67H0v22h7V9.668h.5l4 13h5l4.001-13h.5v13h7.003v-22h-7.002a4.002 4.002 0 00-3.83 2.892zM56.014 10.67v12h6.975v-7h7.522a7.5 7.5 0 007.057-5H56.014z" fill="#A0B3DE"/><path d="M70.51.67H55.002a10.996 10.996 0 0010.813 8.999H77.85a7.501 7.501 0 00-7.338-9z" fill="#7791CD"/></svg>