<svg width="72" height="22" viewBox="0 0 72 22" fill="none" xmlns="http://www.w3.org/2000/svg"><g clip-path="url(#clip0)"><path d="M29.173-.187l-3.582 22.29h5.725l3.58-22.29h-5.723zm17.269 9.08c-2-.989-3.227-1.655-3.227-2.666.024-.919 1.037-1.86 3.298-1.86 1.86-.047 3.227.39 4.265.825l.52.232.777-4.663c-1.13-.438-2.923-.92-5.138-.92-5.654 0-9.635 2.94-9.66 7.145-.046 3.102 2.85 4.824 5.019 5.856 2.214 1.06 2.968 1.747 2.968 2.688-.024 1.445-1.79 2.112-3.439 2.112-2.284 0-3.51-.343-5.373-1.149l-.753-.343-.801 4.846c1.345.598 3.818 1.124 6.385 1.151 6.009 0 9.919-2.895 9.968-7.375.02-2.458-1.508-4.34-4.81-5.88zM66.753-.119h-4.43c-1.364 0-2.401.392-2.992 1.793l-8.505 20.427h6.009l1.655-4.422h6.722l.858 4.44h5.3L66.753-.118zm-6.597 13.335c.116.01 2.306-7.22 2.306-7.22l1.744 7.22h-4.05zM20.806-.187l-5.609 15.144-.61-2.987c-1.038-3.446-4.29-7.19-7.918-9.05l5.136 19.16h6.058L26.864-.185h-6.057v-.002z" fill="#A0B3DE"/><path d="M12.7 2.688c-.438-1.7-1.832-2.846-3.725-2.87H.09L0 .23c6.93 1.708 12.746 6.965 14.633 11.91L12.7 2.688z" fill="#7791CD"/></g><defs><clipPath id="clip0"><path fill="white" d="M0 0h71.37v21.96H0z"/></clipPath></defs></svg>