<svg width="496" height="366" version="1.1" viewBox="0 0 489.18 359.21" xmlns="http://www.w3.org/2000/svg"><g fill="none" stroke="#fff" stroke-miterlimit="10" stroke-linecap="round" stroke-linejoin="round"><path d="m33.8 130c.9-2.56 3.65-41.1 47.9-61.3-.197-1.18 13.7-28.8 48-30.5-.197-1.18 11.1-19.8 54-21.4 1.1-1.38 21.1-18.6 44.4-9.17 2.27-1.48 21.7-13.7 40-4.93 2.46-.3 16.4-6.9 27.1.394 2.27-1.48 13.2-2.86 19.8 1.28 3.65-.493 12.4.986 20.7 8.57 2.56.9 23.1-2.86 33.4 21.8 5.91-1.97 29.1-3.55 36.8 18.9 3.94 1.97 20.1 3.65 26 31.3 4.83-.591 25.7 9.17 24 35.2 6.41 1.68 14.5 8.1 14.2 25.3 5.12 1.87 21 10.9 12.6 32.9 3.94 1.97 14.8 30.2-12.5 38.4 4.34 5.62 42 41.7-8.57 81.1.788 6.11-1.87 65.4-67.4 52.5-2.46.3-41.5 27.9-76.4-20.2-2.46.3-31.9-9.66-37.9-28.6-5.32 6.8-27.7 45.2-85.4 36.3-7.59-1.58-46.9-11.5-61.7-61.4 0 0-31.8 42.1-87.5 19.3-3.84-1.97-68-33.5-34.8-104-.315-2.38-8.12-35.9 23.3-61.8z" stroke-width="2"/><path d="m315 4.47v36.2l-26 43.7-68-22.5-22-10.8m-32.2-32.5 1.16 11.7m-80.7 29.3 15 3.23 12.6-22m-19.6 10.6 7.06 11.3-62.7 147 .8 72m-38.9-61.1 38.1-10.9 54.8 90.6m-86.6-103 31.8 12.2 86.3-17l51 74-39 23.4m-43.5 10.2-54-18.6-37.6-35.9m10.1 22 27.5 13.9-2.39 9.72m182-286-21.3 45.6-31-20.8-65.6 32.5-20.7 5.98m146-61.1-29.1 43.4l-2 44.5-94.6-32.8 23.6 130 53-71 75-3-57-23.4-18 26.4 21 117 46-85-67-32-76.6-59.2-53.4 31.3m188-91-16.1 58.8 33 57.1l-8 35 70 17 18-89.6-45 3-35 34.6 62 52-27-86.6m46.7-71.4l6.3 26.9 41 3.5m-17.3-15.2-23.7 11.7 27.1-5.06m33.7 12.3-19.8-3.71l-49 38 79 121 8 46-30 20m-57-187 58 53.6-12.2 15.2m-176-144-36 24.2l29 65.3 24-33.7 94-21.2 27-.8-8 41.5-19-40.7-44.8-38.5m193 122-70.8 11l21 67 62 42m2.49-30.3-8.49-61.7-77-17-9-91.6 72.2 65.8m29.6 53.5-15.8-10.7l6.17-3.79m-6.17 3.79-56 50-22 66m76.5 25.1 7.52-49.1m12.1 17.6-12.1-17.6m7.81-9.26l-7.81 9.26m2.24-18.5-2.24 18.5l-54 4 29.7 86.4m-3.4 4.06l-56.3-70.5m16 84.1-16-84.1l-33-5-21 7m70 82.1-49-89.1-18 19m47.1 71.8-47.1-71.8m67 70.1-67-70.1m-9.93 62.1 9.93-62.1l-29-9 5-102 97 31-55 61-42-92 63.8-20.8m-65.8 179-2.95-56.3 26-3m-202 14 41.7-17 23-28-74-46-31.5 108m105-61.6l24 55 87-21-111-34 116-68 24 111m-107 54.5-21.5-18.5m-12.3 20.6-13.7-35.6l38-9-21 44.9m-34.9-12.3 17.8-23.6 26 15m-61.2-7.08 35.2-7.92l-9-36 47 27 29.8 33.7"/><g fill="#fff"><circle cx="39.7" cy="210" r="10"/><circle cx="126" cy="193" r="9"/><circle cx="177" cy="267" r="9"/><circle cx="224" cy="294" r="10"/><circle cx="200" cy="239" r="9"/><circle cx="179" cy="122" r="9"/><circle cx="246" cy="154" r="9"/><circle cx="102" cy="63" r="9"/><circle cx="197" cy="95.6" r="9"/><circle cx="316" cy="171" r="10"/><circle cx="311" cy="273" r="9"/><circle cx="358" cy="263" r="9"/><circle cx="421" cy="248" r="9"/><circle cx="413" cy="202" r="9"/><circle cx="392" cy="135" r="9"/><circle cx="334" cy="81.4" r="9"/><circle cx="289" cy="84.4" r="9"/><circle cx="221" cy="61.9" r="9"/><circle cx="315" cy="40.7" r="9"/><circle cx="168" cy="30.3" r="9"/><circle cx="199" cy="51.1" r="6.7"/><circle cx="342" cy="39.9" r="6.7"/><circle cx="383" cy="43.4" r="8"/></g></g></svg>