<svg width="512" height="512" version="1.1" viewBox="0 0 512 512" xmlns="http://www.w3.org/2000/svg"><g transform="translate(11 77)" fill="none" stroke="#fff" stroke-linecap="round" stroke-linejoin="round" stroke-miterlimit="10"><path d="m34 130c0.9-2.6 3.6-41 48-61-0.2-1.2 14-29 48-30-0.2-1.2 11-20 54-21 1.1-1.4 21-19 44-9.2 2.3-1.5 22-14 40-4.9 2.5-0.3 16-6.9 27 0.39 2.3-1.5 13-2.9 20 1.3 3.6-0.49 12 0.99 21 8.6 2.6 0.9 23-2.9 33 22 5.9-2 29-3.6 37 19 3.9 2 20 3.6 26 31 4.8-0.59 26 9.2 24 35 6.4 1.7 14 8.1 14 25 5.1 1.9 21 11 13 33 3.9 2 15 30-12 38 4.3 5.6 42 42-8.6 81 0.79 6.1-1.9 65-67 52-2.5 0.3-42 28-76-20-2.5 0.3-32-9.7-38-29-5.3 6.8-28 45-85 36-7.6-1.6-47-12-62-61 0 0-32 42-88 19-3.8-2-68-34-35-104-0.32-2.4-8.1-36 23-62z" stroke-width="2"/><path d="m315 4.5v36l-26 44-68-22-22-11m-32-32 1.2 12m-81 29 15 3.2 13-22m-20 11 7.1 11-63 147 0.8 72m-39-61 38-11 55 91m-87-103 32 12 86-17 51 74-39 23m-44 10-54-19-38-36m10 22 28 14-2.4 9.7m182-286-21 46-31-21-66 32-21 6m146-61-29 43-2 44-95-33 24 130 53-71 75-3-57-23-18 26 21 117 46-85-67-32-77-59-53 31m188-91-16 59 33 57-8 35 70 17 18-90-45 3-35 35 62 52-27-87m47-71 6.3 27 41 3.5m-17-15-24 12 27-5.1m34 12-20-3.7-49 38 79 121 8 46-30 20m-57-187 58 54-12 15m-176-144-36 24 29 65 24-34 94-21 27-0.8-8 42-19-41-45-38m193 122-71 11 21 67 62 42m2.5-30-8.5-62-77-17-9-92 72 66m30 54-16-11 6.2-3.8m-6.2 3.8-56 50-22 66m76 25 7.5-49m12 18-12-18m7.8-9.3-7.8 9.3m2.2-18-2.2 18-54 4 30 86m-3.4 4.1-56-70m16 84-16-84-33-5-21 7m70 82-49-89-18 19m47 72-47-72m67 70-67-70m-9.9 62 9.9-62-29-9 5-102 97 31-55 61-42-92 64-21m-66 179-3-56 26-3m-202 14 42-17 23-28-74-46-32 108m105-62 24 55 87-21-111-34 116-68 24 111m-107 54-22-18m-12 21-14-36 38-9-21 45m-35-12 18-24 26 15m-61-7.1 35-7.9-9-36 47 27 30 34"/><g fill="#fff"><circle cx="40" cy="210" r="10"/><circle cx="126" cy="193" r="9"/><circle cx="177" cy="267" r="9"/><circle cx="224" cy="294" r="10"/><circle cx="200" cy="239" r="9"/><circle cx="179" cy="122" r="9"/><circle cx="246" cy="154" r="9"/><circle cx="102" cy="63" r="9"/><circle cx="197" cy="96" r="9"/><circle cx="316" cy="171" r="10"/><circle cx="311" cy="273" r="9"/><circle cx="358" cy="263" r="9"/><circle cx="421" cy="248" r="9"/><circle cx="413" cy="202" r="9"/><circle cx="392" cy="135" r="9"/><circle cx="334" cy="81" r="9"/><circle cx="289" cy="84" r="9"/><circle cx="221" cy="62" r="9"/><circle cx="315" cy="41" r="9"/><circle cx="168" cy="30" r="9"/><circle cx="199" cy="51" r="6.7"/><circle cx="342" cy="40" r="6.7"/><circle cx="383" cy="43" r="8"/></g></g></svg>
