<svg width="360" height="202" viewBox="0 0 360 202" xmlns="http://www.w3.org/2000/svg"><path d="m0 0v202h360v-202" fill="#d8ebed"/><path d="m180 79s-19.65 5.5e-4 -24.56 1.311c-2.7 0.72-4.829 2.849-5.559 5.559-1.31 4.9-1.311 15.13-1.311 15.13s5.5e-4 10.23 1.311 15.13c0.72 2.7 2.849 4.829 5.559 5.559 4.91 1.31 24.56 1.311 24.56 1.311s19.66-5.5e-4 24.56-1.311c2.7-0.72 4.831-2.849 5.561-5.559 1.31-4.9 1.309-15.13 1.309-15.13s1e-3 -10.23-1.309-15.13c-0.72-2.7-2.851-4.829-5.561-5.559-4.9-1.31-24.56-1.311-24.56-1.311zm-6.279 12.57 16.33 9.43-16.33 9.43z" fill="#f00"/></svg>